<svg version="1.1" xmlns="http://www.w3.org/2000/svg" viewBox="0 0 380 380" fill="currentColor" xml:space="preserve">
    <path d="M328.782 155.879c-39.25-19.183-77.384-42.102-109.367-72.092a49.757 49.757 0 0 0-2.548-2.333c-.388-.376-.817-.728-1.205-1.104-2.19-2.13-4.547-3.532-6.939-4.368-2.118-1.068-4.308-1.945-6.528-2.554-1.718-.477-3.401-.788-5.066-1.026-3.944-1.05-8.473-1.963-13.682-2.685-33.45-1.712-58.183-4.356-91.329 1.432-8.151 1.42-13.312 10.162-13.551 17.781-.728 24.041 7.65 44.149 19.434 64.657 11.832 20.627 43.725 2.047 31.857-18.617-5.842-10.179-10.555-19.607-12.865-30.091 12.721-1.062 25.819-.943 38.844-.394 4.278.776 7.93 2.261 10.478 4.511 3.711 3.258 5.812 8.706 5.889 15.341.167 13.67-7.894 29.357-21.558 41.989-15.902 14.69-32.054 16.886-40.264 16.886-1.599 0-5.227-.131-8.956-.973-.973 1.748-1.707 3.586-2.291 5.46-1.707.961-3.33 2.273-4.815 3.992-21.475 24.852-44.131 48.35-62.533 75.696-13.324 19.798 18.652 38.242 31.857 18.623 13.557-20.138 32.883-37.884 50.086-55.91a37.464 37.464 0 0 0 2.852 2.005c-20.353 35.539-40.408 70.027-62.897 107.29-12.322 20.431 19.595 38.958 31.863 18.623 30.807-51.059 64.269-100.488 94.605-151.809 16.6-22.901 31.636-44.996 43.528-70.725 26.875 20.359 56.285 37.514 86.454 52.258 21.315 10.394 40.027-21.421 18.647-31.863zM231.678 66.877c18.479 0 33.45-14.971 33.45-33.438S250.151 0 231.678 0c-18.456 0-33.426 14.971-33.426 33.438.005 18.468 14.97 33.439 33.426 33.439z"/>
    <path d="M112.788 166.147c-6.217 0-11.796-2.637-15.89-7.315-.937 7.172-.03 12.638 1.384 14.171 3.324 3.586 26.69 7.805 48.147-12.017 21.451-19.84 22.233-41.398 15.788-47.061-5.114-4.505-20.073-5.722-35.891 3.103 2.088 4.708 4.594 9.475 7.53 14.601 4.153 7.232 4.26 15.305.304 22.143-4.277 7.405-12.869 12.375-21.372 12.375z"/>
</svg>