<svg xmlns="http://www.w3.org/2000/svg" version="1.1" viewBox="-10 0 75 65" fill="currentColor" xml:space="preserve">
    <g id="g8" transform="matrix(-1 0 0 1 63.704 0)">
        <g id="g6">
            <path d="M23.926 12.752c3.47-.402 5.963-3.572 5.564-7.082-.396-3.51-3.532-6.029-7-5.628-3.47.402-5.961 3.572-5.564 7.082.395 3.51 3.53 6.029 7 5.628z" id="path2"/>
            <path d="M60.258 57.826c-4.91-8.431-20.181-35.671-22.716-40.117 4.949-1.597 9.471-.139 13.027 4.899 2.892 4.098 9.656.169 6.729-3.979-6.882-9.75-17.146-12.171-27.421-6.001-.43.257-2.355 1.333-2.789 1.594-6.391 3.835-12.325 3.109-16.759-3.173C7.434 6.95.67 10.881 3.598 15.028c5.659 8.014 13.601 11.072 21.957 8.481a315.337 315.337 0 0 1 7.499 13.866c-3.533 1.825-6.805 4.103-9.846 6.781-1.796 1.583-1.501 3.659-.295 5.058.292.638 9.585 6.565 13.61 9.009 4.319 2.624 8.237-4.194 3.934-6.807-2.602-1.579-5.202-3.16-7.803-4.741 2.505-1.707 8.94-4.523 9.281-4.795 3.862 6.646 7.732 13.282 11.595 19.924 2.542 4.376 9.281.411 6.728-3.978z" id="path4"/>
        </g>
    </g>
</svg>