<svg xmlns="http://www.w3.org/2000/svg" fill="currentColor" viewBox="924 796 200 200" version="1.1">
    <path d="M1049.078 903.431h-3.447a7.322 7.322 0 0 1-6.904-4.891 48.579 48.579 0 0 0-2.176-5.227 7.318 7.318 0 0 1 1.404-8.369l2.381-2.382c4.029-4.028 4.029-10.556.002-14.583l-1.717-1.717c-4.025-4.024-10.557-4.028-14.58 0l-2.436 2.433a7.312 7.312 0 0 1-8.336 1.425 50.65 50.65 0 0 0-5.236-2.155 7.314 7.314 0 0 1-4.928-6.91v-3.37c0-5.693-4.618-10.31-10.309-10.31h-2.43c-5.695 0-10.312 4.616-10.312 10.31v3.444a7.32 7.32 0 0 1-4.892 6.906 48.734 48.734 0 0 0-5.224 2.176 7.325 7.325 0 0 1-8.371-1.406l-2.377-2.382c-4.03-4.028-10.558-4.028-14.584 0l-1.719 1.717c-4.026 4.028-4.028 10.555 0 14.583l2.434 2.432a7.323 7.323 0 0 1 1.421 8.341 48.865 48.865 0 0 0-2.15 5.234 7.325 7.325 0 0 1-6.915 4.926h-3.367c-5.695 0-10.312 4.617-10.312 10.313v2.429c0 5.693 4.617 10.31 10.312 10.31h3.441a7.316 7.316 0 0 1 6.903 4.893 49.518 49.518 0 0 0 2.18 5.227 7.317 7.317 0 0 1-1.408 8.367l-2.379 2.383c-4.029 4.027-4.027 10.555 0 14.582l1.718 1.718c4.025 4.023 10.553 4.026 14.58-.003l2.431-2.432a7.322 7.322 0 0 1 8.341-1.424 49.73 49.73 0 0 0 5.236 2.155 7.318 7.318 0 0 1 4.927 6.913v3.364c-.004 5.699 4.614 10.313 10.311 10.313h2.427c5.696 0 10.314-4.614 10.311-10.309v-3.445a7.323 7.323 0 0 1 4.892-6.905 49.398 49.398 0 0 0 5.229-2.175 7.318 7.318 0 0 1 8.368 1.404l2.379 2.38c4.027 4.029 10.555 4.025 14.583.002l1.717-1.718c4.027-4.026 4.03-10.557 0-14.581l-2.432-2.433a7.315 7.315 0 0 1-1.426-8.337 49.54 49.54 0 0 0 2.154-5.24 7.319 7.319 0 0 1 6.914-4.926h3.367c5.695.002 10.31-4.616 10.31-10.312v-2.429c.001-5.691-4.613-10.313-10.306-10.309zm-57.384 36.716c-13.852 0-25.081-11.227-25.081-25.078 0-13.853 11.229-25.08 25.081-25.08 13.85 0 25.079 11.228 25.079 25.08-.001 13.852-11.229 25.078-25.079 25.078z"/>
    <path d="M1117.307 845.487h-1.727a6.151 6.151 0 0 1-5.752-3.974 30.535 30.535 0 0 0-.746-1.804 6.141 6.141 0 0 1 1.256-6.876l1.219-1.221a6.695 6.695 0 0 0 0-9.466l-.473-.473a6.696 6.696 0 0 0-9.465 0l-1.219 1.221a6.151 6.151 0 0 1-6.877 1.258 30.413 30.413 0 0 0-1.805-.747 6.153 6.153 0 0 1-3.975-5.748v-1.729a6.69 6.69 0 0 0-6.689-6.692h-.668a6.693 6.693 0 0 0-6.696 6.692v1.724a6.149 6.149 0 0 1-3.972 5.753c-.609.231-1.215.479-1.805.747a6.152 6.152 0 0 1-6.876-1.256l-1.22-1.221a6.695 6.695 0 0 0-9.467.001l-.472.472a6.694 6.694 0 0 0 0 9.465l1.219 1.22a6.149 6.149 0 0 1 1.257 6.876 30.96 30.96 0 0 0-.748 1.804 6.149 6.149 0 0 1-5.748 3.977h-1.727a6.69 6.69 0 0 0-6.691 6.69v.669a6.692 6.692 0 0 0 6.691 6.693h1.722a6.148 6.148 0 0 1 5.753 3.973c.231.611.48 1.215.747 1.809a6.141 6.141 0 0 1-1.255 6.871l-1.219 1.224a6.692 6.692 0 0 0 0 9.463l.475.473a6.69 6.69 0 0 0 9.463 0l1.217-1.219a6.15 6.15 0 0 1 6.877-1.255 29.88 29.88 0 0 0 1.809.748 6.146 6.146 0 0 1 3.974 5.747v1.724a6.69 6.69 0 0 0 6.692 6.692h.669a6.692 6.692 0 0 0 6.692-6.692v-1.721a6.15 6.15 0 0 1 3.971-5.752 30.8 30.8 0 0 0 1.809-.746 6.15 6.15 0 0 1 6.873 1.251l1.223 1.222a6.69 6.69 0 0 0 9.465 0l.473-.475a6.696 6.696 0 0 0 0-9.464l-1.221-1.22a6.152 6.152 0 0 1-1.256-6.875c.268-.59.518-1.194.749-1.805a6.143 6.143 0 0 1 5.747-3.976h1.725c3.694.004 6.691-2.995 6.695-6.69v-.669a6.697 6.697 0 0 0-6.693-6.693zm-36.59 21.753c-8.131 0-14.723-6.592-14.723-14.724s6.592-14.724 14.723-14.724c8.133 0 14.725 6.592 14.725 14.724s-6.592 14.724-14.725 14.724z"/>
</svg>