<svg xmlns="http://www.w3.org/2000/svg" viewBox="0 0 250 350" version="1.1" height="100%" width="100%" id="svg60"><defs id="defs4"><style id="style2">.cls-9{fill:#fff}</style></defs><path d="m129.967 71.894-28.47-15.652-10.626-30.554q-3.03 2.55-5.863 5.37a92.228 92.169 0 0 0-27.067 65.313v28.016h60.539V96.371a31.828 31.808 0 0 1 11.487-24.477z" id="path8" style="fill:#053e72;stroke-width:.443367"/><path d="M146.39 128.234H5.277v60.5h141.494l11.448-29.418z" id="path10" style="fill:#2892de;stroke-width:.443367"/><path d="M134.207 68.91a31.685 31.665 0 0 1 16.144-4.403h.696a31.723 31.702 0 0 1 11.322 2.08l10.22-31.988 27.904-16.286a92.206 92.146 0 0 0-49.437-14.306h-.696a92.181 92.122 0 0 0-55.634 18.616l10.58 30.405z" id="path12" style="fill:#1a6091;stroke-width:.443367"/><path d="M182.053 103.844a31.94 31.92 0 0 1-30.683 24.384l11.815 31.106-11.421 29.39a92.398 92.339 0 0 0 89.231-71.048l-26.342-18.11Z" id="path14" style="fill:#268bd2;stroke-width:.443367"/><path d="M166.632 68.578A31.906 31.886 0 0 1 182.94 96.37c0 .902-.04 1.796-.116 2.68l32.993-4.343 26.225 18.02a92.827 92.767 0 0 0 1.446-16.357 92.228 92.169 0 0 0-27.068-65.31 92.808 92.748 0 0 0-11.633-9.86l-28.299 16.515z" id="path16" style="fill:#2179b8;stroke-width:.443367"/><path id="polygon18" style="fill:#042735;stroke-width:.443368" d="m118.476 291.374-31.24 11.858-29.299-11.368v49.083h60.54Z"/><path id="polygon20" style="fill:#0f3652;stroke-width:.443368" d="m57.937 230.715 29.316 11.377 31.223-11.855V193.11H57.937Z"/><path id="polygon22" style="fill:#023751;stroke-width:.443368" d="m87.254 298.249 31.223-11.855v-51.177l-31.241 11.858-29.299-11.368v51.164z"/><g id="group23" transform="matrix(.33245 0 0 .14774 6.295 130.231)" fill="none" style="stroke-width:1.42857"><g id="group24" transform="translate(85.857 136.091)" fill="none" style="stroke-width:2.04082"><text id="shape19" fill="#f1f2f2" font-family="' Poppins-Bold '" font-size="25.6" x="-.309" y="53.629" transform="matrix(.67999 .01337 -.00618 1.47049 0 0)" style="font-size:30.7432px;font-family:' Poppins-Bold ';fill:#f1f2f2;stroke-width:1.71559"><tspan id="tspan85" style="font-style:normal;font-variant:normal;font-weight:400;font-stretch:normal;font-size:59.7497px;font-family:Poppins;-inkscape-font-specification:'Poppins, Normal';font-variant-ligatures:normal;font-variant-caps:normal;font-variant-numeric:normal;font-variant-east-asian:normal;stroke-width:1.71559">Requirements</tspan></text></g></g><g id="group23-2" transform="matrix(.33245 0 0 .14774 146.421 109.051)" fill="none" style="stroke-width:1.42857"><g id="group24-8" transform="translate(85.857 136.091)" fill="none" style="stroke-width:2.04082"><text id="shape19-9" fill="#f1f2f2" font-family="' Poppins-Bold '" font-size="25.6" x="-.309" y="53.629" transform="matrix(.67999 .01337 -.00618 1.47049 0 0)" style="font-size:30.7432px;font-family:' Poppins-Bold ';fill:#f1f2f2;stroke-width:1.71559"><tspan id="tspan85-3" style="font-style:normal;font-variant:normal;font-weight:400;font-stretch:normal;font-size:59.7497px;font-family:Poppins;-inkscape-font-specification:'Poppins, Normal';font-variant-ligatures:normal;font-variant-caps:normal;font-variant-numeric:normal;font-variant-east-asian:normal;stroke-width:1.71559">Design</tspan></text></g></g><g id="group23-2-2" transform="matrix(.33245 0 0 .14774 152.31 42.461)" fill="none" style="stroke-width:1.42857"><g id="group24-8-1" transform="translate(85.857 136.091)" fill="none" style="stroke-width:2.04082"><text id="shape19-9-0" fill="#f1f2f2" font-family="' Poppins-Bold '" font-size="25.6" x="-.309" y="53.629" transform="matrix(.67999 .01337 -.00618 1.47049 0 0)" style="font-size:30.7432px;font-family:' Poppins-Bold ';fill:#f1f2f2;stroke-width:1.71559"><tspan id="tspan85-3-5" style="font-style:normal;font-variant:normal;font-weight:400;font-stretch:normal;font-size:59.7497px;font-family:Poppins;-inkscape-font-specification:'Poppins, Normal';font-variant-ligatures:normal;font-variant-caps:normal;font-variant-numeric:normal;font-variant-east-asian:normal;stroke-width:1.71559">Develop</tspan></text></g></g><g id="group23-2-2-0" transform="matrix(.33245 0 0 .14774 94.13 5.949)" fill="none" style="stroke-width:1.42857"><g id="group24-8-1-8" transform="translate(85.857 136.091)" fill="none" style="stroke-width:2.04082"><text id="shape19-9-0-5" fill="#f1f2f2" font-family="' Poppins-Bold '" font-size="25.6" x="-.309" y="53.629" transform="matrix(.67999 .01337 -.00618 1.47049 0 0)" style="font-size:30.7432px;font-family:' Poppins-Bold ';fill:#f1f2f2;stroke-width:1.71559"><tspan id="tspan85-3-5-0" style="font-style:normal;font-variant:normal;font-weight:400;font-stretch:normal;font-size:59.7497px;font-family:Poppins;-inkscape-font-specification:'Poppins, Normal';font-variant-ligatures:normal;font-variant-caps:normal;font-variant-numeric:normal;font-variant-east-asian:normal;stroke-width:1.71559">Test</tspan></text></g></g><g id="group23-2-2-6" transform="matrix(.33245 0 0 .14774 32.137 62.947)" fill="none" style="stroke-width:1.42857"><g id="group24-8-1-4" transform="translate(85.857 136.091)" fill="none" style="stroke-width:2.04082"><text id="shape19-9-0-6" fill="#f1f2f2" font-family="' Poppins-Bold '" font-size="25.6" x="-.309" y="53.629" transform="matrix(.67999 .01337 -.00618 1.47049 0 0)" style="font-size:30.7432px;font-family:' Poppins-Bold ';fill:#f1f2f2;stroke-width:1.71559"><tspan id="tspan85-3-5-2" style="font-style:normal;font-variant:normal;font-weight:400;font-stretch:normal;font-size:59.7497px;font-family:Poppins;-inkscape-font-specification:'Poppins, Normal';font-variant-ligatures:normal;font-variant-caps:normal;font-variant-numeric:normal;font-variant-east-asian:normal;stroke-width:1.71559">Develop</tspan></text></g></g><g id="group23-2-2-5" transform="matrix(.33245 0 0 .14774 47.749 177.534)" fill="none" style="stroke-width:1.42857"><g id="group24-8-1-86" transform="translate(85.857 136.091)" fill="none" style="stroke-width:2.04082"><text id="shape19-9-0-2" fill="#f1f2f2" font-family="' Poppins-Bold '" font-size="25.6" x="-.309" y="53.629" transform="matrix(.67999 .01337 -.00618 1.47049 0 0)" style="font-size:30.7432px;font-family:' Poppins-Bold ';fill:#f1f2f2;stroke-width:1.71559"><tspan id="tspan1221" x="-.309" y="53.629" style="font-style:normal;font-variant:normal;font-weight:400;font-stretch:normal;font-size:41.0779px;font-family:Poppins;-inkscape-font-specification:'Poppins, Normal';font-variant-ligatures:normal;font-variant-caps:normal;font-variant-numeric:normal;font-variant-east-asian:normal;stroke-width:1.71559">Dual</tspan></text></g></g><g id="group23-2-2-4" transform="matrix(.33245 0 0 .14774 47.437 230.427)" fill="none" style="stroke-width:1.42857"><g id="group24-8-1-7" transform="translate(85.857 136.091)" fill="none" style="stroke-width:2.04082"><text id="shape19-9-0-24" fill="#f1f2f2" font-family="' Poppins-Bold '" font-size="25.6" x="-.309" y="53.629" transform="matrix(.67999 .01337 -.00618 1.47049 0 0)" style="font-size:30.7432px;font-family:' Poppins-Bold ';fill:#f1f2f2;stroke-width:1.71559"><tspan id="tspan85-3-5-06" style="font-style:normal;font-variant:normal;font-weight:400;font-stretch:normal;font-size:41.0779px;font-family:Poppins;-inkscape-font-specification:'Poppins, Normal';font-variant-ligatures:normal;font-variant-caps:normal;font-variant-numeric:normal;font-variant-east-asian:normal;stroke-width:1.71559">User</tspan></text></g></g><g id="group23-2-2-2" transform="matrix(.33245 0 0 .14774 29.884 281.677)" fill="none" style="stroke-width:1.42857"><g id="group24-8-1-9" transform="translate(85.857 136.091)" fill="none" style="stroke-width:2.04082"><text id="shape19-9-0-9" fill="#f1f2f2" font-family="' Poppins-Bold '" font-size="25.6" x="-.309" y="53.629" transform="matrix(.67999 .01337 -.00618 1.47049 0 0)" style="font-size:30.7432px;font-family:' Poppins-Bold ';fill:#f1f2f2;stroke-width:1.71559"><tspan id="tspan85-3-5-08" style="font-style:normal;font-variant:normal;font-weight:400;font-stretch:normal;font-size:41.0779px;font-family:Poppins;-inkscape-font-specification:'Poppins, Normal';font-variant-ligatures:normal;font-variant-caps:normal;font-variant-numeric:normal;font-variant-east-asian:normal;stroke-width:1.71559">Decomission</tspan></text></g></g><g id="group23-2-2-6-0" transform="matrix(.33245 0 0 .14774 29.813 239.53)" fill="none" style="stroke-width:1.42857"><g id="group24-8-1-4-3" transform="translate(85.857 136.091)" fill="none" style="stroke-width:2.04082"><text id="shape19-9-0-6-4" fill="#f1f2f2" font-family="' Poppins-Bold '" font-size="25.6" x="-.309" y="53.629" transform="matrix(.67999 .01337 -.00618 1.47049 0 0)" style="font-size:30.7432px;font-family:' Poppins-Bold ';fill:#f1f2f2;stroke-width:1.71559"><tspan id="tspan85-3-5-2-0" style="font-style:normal;font-variant:normal;font-weight:400;font-stretch:normal;font-size:41.0779px;font-family:Poppins;-inkscape-font-specification:'Poppins, Normal';font-variant-ligatures:normal;font-variant-caps:normal;font-variant-numeric:normal;font-variant-east-asian:normal;stroke-width:1.71559">Engagement</tspan></text></g></g><g id="group23-2-2-6-3" transform="matrix(.33245 0 0 .14774 36.176 188.107)" fill="none" style="stroke-width:1.42857"><g id="group24-8-1-4-9" transform="translate(85.857 136.091)" fill="none" style="stroke-width:2.04082"><text id="shape19-9-0-6-1" fill="#f1f2f2" font-family="' Poppins-Bold '" font-size="25.6" x="-.309" y="53.629" transform="matrix(.67999 .01337 -.00618 1.47049 0 0)" style="font-size:30.7432px;font-family:' Poppins-Bold ';fill:#f1f2f2;stroke-width:1.71559"><tspan id="tspan85-3-5-2-9" style="font-style:normal;font-variant:normal;font-weight:400;font-stretch:normal;font-size:41.0779px;font-family:Poppins;-inkscape-font-specification:'Poppins, Normal';font-variant-ligatures:normal;font-variant-caps:normal;font-variant-numeric:normal;font-variant-east-asian:normal;stroke-width:1.71559">Operation</tspan></text></g></g><g id="group23-2-2-6-6" transform="matrix(.33245 0 0 .14774 42.515 291.473)" fill="none" style="stroke-width:1.42857"><g id="group24-8-1-4-93" transform="translate(85.857 136.091)" fill="none" style="stroke-width:2.04082"><text id="shape19-9-0-6-3" fill="#f1f2f2" font-family="' Poppins-Bold '" font-size="25.6" x="-.309" y="53.629" transform="matrix(.67999 .01337 -.00618 1.47049 0 0)" style="font-size:30.7432px;font-family:' Poppins-Bold ';fill:#f1f2f2;stroke-width:1.71559"><tspan id="tspan85-3-5-2-8" style="font-style:normal;font-variant:normal;font-weight:400;font-stretch:normal;font-size:41.0779px;font-family:Poppins;-inkscape-font-specification:'Poppins, Normal';font-variant-ligatures:normal;font-variant-caps:normal;font-variant-numeric:normal;font-variant-east-asian:normal;stroke-width:1.71559">Legacy</tspan></text></g></g><g id="group23-2-2-6-05" transform="matrix(.33245 0 0 .14774 -23.456 249.506)" fill="none" style="stroke-width:1.42857"><g id="group24-8-1-4-6" transform="translate(85.857 136.091)" fill="none" style="stroke-width:2.04082"><text id="shape19-9-0-6-6" fill="#f1f2f2" font-family="' Poppins-Bold '" font-size="25.6" x="291.727" y="292.442" transform="matrix(.67999 .01337 -.00618 1.47049 0 0)" style="font-size:30.7432px;font-family:' Poppins-Bold ';fill:#f1f2f2;stroke-width:1.71559"><tspan id="tspan85-3-5-2-4" style="font-style:normal;font-variant:normal;font-weight:400;font-stretch:normal;font-size:41.0779px;font-family:Poppins;-inkscape-font-specification:'Poppins, Normal';font-variant-ligatures:normal;font-variant-caps:normal;font-variant-numeric:normal;font-variant-east-asian:normal;stroke-width:1.71559">System</tspan></text></g></g></svg>