<svg version="1.1" xmlns="http://www.w3.org/2000/svg" viewBox="0 0 60 60" fill="currentColor" xml:space="preserve">
    <path d="M60 4H31V1a1 1 0 1 0-2 0v3H0v42h27.586L15.293 58.293a.999.999 0 1 0 1.414 1.414L29 47.414V57a1 1 0 1 0 2 0v-9.586l12.293 12.293a.997.997 0 0 0 1.414 0 .999.999 0 0 0 0-1.414L32.414 46H60V4zm-2 40H2V6h56v38z"/>
    <path d="M36 42a1 1 0 0 0 1-1v-3a1 1 0 1 0-2 0v3a1 1 0 0 0 1 1zm4-9a1 1 0 0 0-1 1v7a1 1 0 1 0 2 0v-7a1 1 0 0 0-1-1zm4 2a1 1 0 0 0-1 1v5a1 1 0 1 0 2 0v-5a1 1 0 0 0-1-1zm4-7a1 1 0 0 0-1 1v12a1 1 0 1 0 2 0V29a1 1 0 0 0-1-1zm4 4a1 1 0 0 0-1 1v8a1 1 0 1 0 2 0v-8a1 1 0 0 0-1-1zM8 38h10a1 1 0 1 0 0-2H8a1 1 0 1 0 0 2zm0 4h15a1 1 0 1 0 0-2H8a1 1 0 1 0 0 2zm31-27h8a1 1 0 1 0 0-2h-8a1 1 0 1 0 0 2zm12.3-1.71a.977.977 0 0 0-.3.71c0 .27.109.53.29.7.189.19.439.3.71.3.26 0 .52-.11.71-.29.18-.19.29-.45.29-.71s-.11-.521-.29-.71c-.38-.37-1.061-.36-1.41 0zM49 10h3a1 1 0 1 0 0-2h-3a1 1 0 1 0 0 2zm-10 0h2a1 1 0 1 0 0-2h-2a1 1 0 1 0 0 2zm6 0c.27 0 .52-.11.71-.29.18-.19.29-.44.29-.71 0-.271-.11-.521-.29-.71-.37-.37-1.061-.37-1.42 0-.181.189-.29.439-.29.71 0 .27.109.52.29.71.189.18.439.29.71.29zM26.85 27.385a11.454 11.454 0 0 0 3.066-6.41l-9.47.006 6.404 6.404z"/>
    <path d="M18.525 30.975a11.42 11.42 0 0 0 6.822-2.264l-7.637-7.733-.685-.003v-.919a51 51 0 0 0 .001-1.046l-.001-10.926c-5.633.739-10 5.559-10 11.391 0 6.34 5.16 11.5 11.5 11.5z"/>
    <path d="M19.025 8v10.975H30C29.743 13.034 24.966 8.257 19.025 8z"/>
</svg>