<svg version="1.1" xmlns="http://www.w3.org/2000/svg" viewBox="0 0 145 140" fill="currentColor" xml:space="preserve">
    <path d="M49.839 79.729c-6.673 0-12.102 5.428-12.102 12.1s5.429 12.1 12.102 12.1c6.672 0 12.101-5.428 12.101-12.1-.001-6.672-5.429-12.1-12.101-12.1zm0 16.983a4.889 4.889 0 0 1-4.884-4.883 4.89 4.89 0 0 1 4.884-4.883 4.889 4.889 0 0 1 4.883 4.883 4.89 4.89 0 0 1-4.883 4.883zM117.563 79.729c-6.672 0-12.101 5.428-12.101 12.1s5.428 12.1 12.101 12.1c6.672 0 12.101-5.428 12.101-12.1.001-6.672-5.428-12.1-12.101-12.1zm0 16.983a4.889 4.889 0 0 1-4.883-4.883 4.889 4.889 0 0 1 4.883-4.883 4.888 4.888 0 0 1 4.883 4.883 4.888 4.888 0 0 1-4.883 4.883z"/>
    <path d="M89.118 36.796H38.103c-6.964 0-12.631 5.666-12.631 12.63v41.929a3.608 3.608 0 0 0 7.218 0V49.426a5.42 5.42 0 0 1 5.413-5.413h51.016a5.42 5.42 0 0 1 5.413 5.413v32.907a5.42 5.42 0 0 1-5.413 5.413H68.11a3.608 3.608 0 1 0 0 7.216h21.008c6.964 0 12.631-5.666 12.631-12.63V49.426c0-6.964-5.666-12.63-12.631-12.63zM140.361 73.735 131.87 56.28a3.609 3.609 0 0 0-3.245-2.029h-19.342a3.608 3.608 0 1 0 0 7.216h17.085l7.14 14.678v15.209a3.608 3.608 0 0 0 7.218 0v-16.04a3.633 3.633 0 0 0-.365-1.579zM16.841 72.202H1.804a1.805 1.805 0 0 0 0 3.61h15.037a1.805 1.805 0 0 0 0-3.61zM16.841 81.402h-8.12a1.805 1.805 0 0 0 0 3.61h8.12a1.805 1.805 0 0 0 0-3.61z"/>
    <path d="M85.251 76.413c.997 0 1.804-.809 1.804-1.805V57.917c0-5.388-2.883-8.119-8.57-8.119H58.641a1.804 1.804 0 1 0 0 3.61h19.844c4.15 0 4.962 1.653 4.962 4.51v16.691c0 .995.808 1.804 1.804 1.804z"/>
</svg>